<mxfile host="app.diagrams.net" modified="2020-08-07T09:07:52.553Z" agent="5.0 (Macintosh; Intel Mac OS X 10_13_4) AppleWebKit/537.36 (KHTML, like Gecko) Chrome/84.0.4147.105 Safari/537.36" etag="arZR9VloTN-4vFHFthod" version="13.5.8" type="github">
  <diagram id="s6HTpMW1duseGNVvLmSm">
    <mxGraphModel dx="907" dy="581" grid="1" gridSize="10" guides="1" tooltips="1" connect="1" arrows="1" fold="1" page="1" pageScale="1" pageWidth="827" pageHeight="1169" math="0" shadow="0">
      <root>
        <mxCell id="0" />
        <mxCell id="1" parent="0" />
      </root>
    </mxGraphModel>
  </diagram>
</mxfile>
